  0
SECTION
  2
HEADER
  9
$ACADVER
  1
AC1009
  9
$EXTMIN
  10
-1.600000
  20
1.280000
  9
$EXTMAX
  10
6.720000
  20
5.440000
  0
ENDSEC
  0
SECTION
  2
TABLES
  0
ENDSEC
  0
SECTION
  2
BLOCKS
  0
ENDSEC
  0
SECTION
  2
ENTITIES
  0
LINE
  8
1
  6
CONTINUOUS
  62
7
  10
3.520000
  20
3.840000
  11
3.520000
  21
1.280000
  0
LINE
  8
1
  6
CONTINUOUS
  62
7
  10
3.520000
  20
1.280000
  11
6.720000
  21
1.280000
  0
LINE
  8
1
  6
CONTINUOUS
  62
7
  10
6.720000
  20
1.280000
  11
6.720000
  21
3.840000
  0
POLYLINE
  8
1
  6
CONTINUOUS
  10
0.0
  20
0.0
  30
0.0
  70
8
  66
1
  0
VERTEX
 8
0
 10
6.720000
 20
3.840000
 30
0.000000
  0
VERTEX
 8
0
 10
6.677537
 20
3.891021
 30
0.000000
  0
VERTEX
 8
0
 10
6.635489
 20
3.942145
 30
0.000000
  0
VERTEX
 8
0
 10
6.594268
 20
3.993476
 30
0.000000
  0
VERTEX
 8
0
 10
6.554289
 20
4.045118
 30
0.000000
  0
VERTEX
 8
0
 10
6.515967
 20
4.097174
 30
0.000000
  0
VERTEX
 8
0
 10
6.479715
 20
4.149747
 30
0.000000
  0
VERTEX
 8
0
 10
6.445947
 20
4.202941
 30
0.000000
  0
VERTEX
 8
0
 10
6.415078
 20
4.256860
 30
0.000000
  0
VERTEX
 8
0
 10
6.387521
 20
4.311607
 30
0.000000
  0
VERTEX
 8
0
 10
6.363690
 20
4.367286
 30
0.000000
  0
VERTEX
 8
0
 10
6.344000
 20
4.424000
 30
0.000000
  0
VERTEX
 8
0
 10
6.328000
 20
4.488000
 30
0.000000
  0
VERTEX
 8
0
 10
6.317823
 20
4.562206
 30
0.000000
  0
VERTEX
 8
0
 10
6.315317
 20
4.638329
 30
0.000000
  0
VERTEX
 8
0
 10
6.319386
 20
4.716096
 30
0.000000
  0
VERTEX
 8
0
 10
6.328934
 20
4.795233
 30
0.000000
  0
VERTEX
 8
0
 10
6.342865
 20
4.875466
 30
0.000000
  0
VERTEX
 8
0
 10
6.360084
 20
4.956521
 30
0.000000
  0
VERTEX
 8
0
 10
6.379494
 20
5.038123
 30
0.000000
  0
VERTEX
 8
0
 10
6.400000
 20
5.120000
 30
0.000000
  0
SEQEND
  0
LINE
  8
1
  6
CONTINUOUS
  62
7
  10
6.400000
  20
5.120000
  11
5.760000
  21
5.440000
  0
LINE
  8
1
  6
CONTINUOUS
  62
7
  10
5.760000
  20
5.440000
  11
4.480000
  21
5.440000
  0
LINE
  8
1
  6
CONTINUOUS
  62
7
  10
4.480000
  20
5.440000
  11
3.840000
  21
5.120000
  0
POLYLINE
  8
1
  6
CONTINUOUS
  10
0.0
  20
0.0
  30
0.0
  70
8
  66
1
  0
VERTEX
 8
0
 10
3.840000
 20
5.120000
 30
0.000000
  0
VERTEX
 8
0
 10
3.865559
 20
5.035610
 30
0.000000
  0
VERTEX
 8
0
 10
3.889494
 20
4.951627
 30
0.000000
  0
VERTEX
 8
0
 10
3.910182
 20
4.868454
 30
0.000000
  0
VERTEX
 8
0
 10
3.926000
 20
4.786500
 30
0.000000
  0
VERTEX
 8
0
 10
3.935325
 20
4.706169
 30
0.000000
  0
VERTEX
 8
0
 10
3.936533
 20
4.627867
 30
0.000000
  0
VERTEX
 8
0
 10
3.928000
 20
4.552000
 30
0.000000
  0
VERTEX
 8
0
 10
3.912000
 20
4.488000
 30
0.000000
  0
VERTEX
 8
0
 10
3.892425
 20
4.430727
 30
0.000000
  0
VERTEX
 8
0
 10
3.869436
 20
4.374308
 30
0.000000
  0
VERTEX
 8
0
 10
3.843341
 20
4.318665
 30
0.000000
  0
VERTEX
 8
0
 10
3.814452
 20
4.263720
 30
0.000000
  0
VERTEX
 8
0
 10
3.783079
 20
4.209397
 30
0.000000
  0
VERTEX
 8
0
 10
3.749532
 20
4.155617
 30
0.000000
  0
VERTEX
 8
0
 10
3.714123
 20
4.102303
 30
0.000000
  0
VERTEX
 8
0
 10
3.677161
 20
4.049376
 30
0.000000
  0
VERTEX
 8
0
 10
3.638958
 20
3.996761
 30
0.000000
  0
VERTEX
 8
0
 10
3.599823
 20
3.944378
 30
0.000000
  0
VERTEX
 8
0
 10
3.560067
 20
3.892150
 30
0.000000
  0
VERTEX
 8
0
 10
3.520000
 20
3.840000
 30
0.000000
  0
SEQEND
  0
LINE
  8
2
  6
CONTINUOUS
  62
7
  10
-1.600000
  20
3.840000
  11
-1.600000
  21
1.280000
  0
LINE
  8
2
  6
CONTINUOUS
  62
7
  10
-1.600000
  20
1.280000
  11
1.600000
  21
1.280000
  0
LINE
  8
2
  6
CONTINUOUS
  62
7
  10
1.600000
  20
1.280000
  11
1.600000
  21
3.840000
  0
POLYLINE
  8
2
  6
CONTINUOUS
  10
0.0
  20
0.0
  30
0.0
  70
8
  66
1
  0
VERTEX
 8
0
 10
1.600000
 20
3.840000
 30
0.000000
  0
VERTEX
 8
0
 10
1.557537
 20
3.891021
 30
0.000000
  0
VERTEX
 8
0
 10
1.515489
 20
3.942145
 30
0.000000
  0
VERTEX
 8
0
 10
1.474268
 20
3.993476
 30
0.000000
  0
VERTEX
 8
0
 10
1.434289
 20
4.045118
 30
0.000000
  0
VERTEX
 8
0
 10
1.395967
 20
4.097174
 30
0.000000
  0
VERTEX
 8
0
 10
1.359715
 20
4.149747
 30
0.000000
  0
VERTEX
 8
0
 10
1.325947
 20
4.202941
 30
0.000000
  0
VERTEX
 8
0
 10
1.295078
 20
4.256860
 30
0.000000
  0
VERTEX
 8
0
 10
1.267521
 20
4.311607
 30
0.000000
  0
VERTEX
 8
0
 10
1.243690
 20
4.367286
 30
0.000000
  0
VERTEX
 8
0
 10
1.224000
 20
4.424000
 30
0.000000
  0
VERTEX
 8
0
 10
1.208000
 20
4.488000
 30
0.000000
  0
VERTEX
 8
0
 10
1.197823
 20
4.562206
 30
0.000000
  0
VERTEX
 8
0
 10
1.195317
 20
4.638329
 30
0.000000
  0
VERTEX
 8
0
 10
1.199386
 20
4.716096
 30
0.000000
  0
VERTEX
 8
0
 10
1.208934
 20
4.795233
 30
0.000000
  0
VERTEX
 8
0
 10
1.222865
 20
4.875466
 30
0.000000
  0
VERTEX
 8
0
 10
1.240084
 20
4.956521
 30
0.000000
  0
VERTEX
 8
0
 10
1.259494
 20
5.038123
 30
0.000000
  0
VERTEX
 8
0
 10
1.280000
 20
5.120000
 30
0.000000
  0
SEQEND
  0
LINE
  8
2
  6
CONTINUOUS
  62
7
  10
1.280000
  20
5.120000
  11
0.640000
  21
5.440000
  0
LINE
  8
2
  6
CONTINUOUS
  62
7
  10
0.640000
  20
5.440000
  11
0.000000
  21
3.200000
  0
LINE
  8
2
  6
CONTINUOUS
  62
7
  10
0.000000
  20
3.200000
  11
-0.640000
  21
5.440000
  0
LINE
  8
2
  6
CONTINUOUS
  62
7
  10
-0.640000
  20
5.440000
  11
-1.280000
  21
5.120000
  0
POLYLINE
  8
2
  6
CONTINUOUS
  10
0.0
  20
0.0
  30
0.0
  70
8
  66
1
  0
VERTEX
 8
0
 10
-1.280000
 20
5.120000
 30
0.000000
  0
VERTEX
 8
0
 10
-1.254441
 20
5.035610
 30
0.000000
  0
VERTEX
 8
0
 10
-1.230506
 20
4.951627
 30
0.000000
  0
VERTEX
 8
0
 10
-1.209818
 20
4.868454
 30
0.000000
  0
VERTEX
 8
0
 10
-1.194000
 20
4.786500
 30
0.000000
  0
VERTEX
 8
0
 10
-1.184675
 20
4.706169
 30
0.000000
  0
VERTEX
 8
0
 10
-1.183467
 20
4.627867
 30
0.000000
  0
VERTEX
 8
0
 10
-1.192000
 20
4.552000
 30
0.000000
  0
VERTEX
 8
0
 10
-1.208000
 20
4.488000
 30
0.000000
  0
VERTEX
 8
0
 10
-1.227575
 20
4.430727
 30
0.000000
  0
VERTEX
 8
0
 10
-1.250564
 20
4.374308
 30
0.000000
  0
VERTEX
 8
0
 10
-1.276659
 20
4.318665
 30
0.000000
  0
VERTEX
 8
0
 10
-1.305548
 20
4.263720
 30
0.000000
  0
VERTEX
 8
0
 10
-1.336921
 20
4.209397
 30
0.000000
  0
VERTEX
 8
0
 10
-1.370468
 20
4.155617
 30
0.000000
  0
VERTEX
 8
0
 10
-1.405877
 20
4.102303
 30
0.000000
  0
VERTEX
 8
0
 10
-1.442839
 20
4.049376
 30
0.000000
  0
VERTEX
 8
0
 10
-1.481042
 20
3.996761
 30
0.000000
  0
VERTEX
 8
0
 10
-1.520177
 20
3.944378
 30
0.000000
  0
VERTEX
 8
0
 10
-1.559933
 20
3.892150
 30
0.000000
  0
VERTEX
 8
0
 10
-1.600000
 20
3.840000
 30
0.000000
  0
SEQEND
  0
ENDSEC
  0
EOF
