  0
SECTION
  2
HEADER
  9
$ACADVER
  1
AC1009
  9
$EXTMIN
  10
-1.600000
  20
-4.480000
  9
$EXTMAX
  10
6.720000
  20
5.120000
  0
ENDSEC
  0
SECTION
  2
TABLES
  0
ENDSEC
  0
SECTION
  2
BLOCKS
  0
ENDSEC
  0
SECTION
  2
ENTITIES
  0
LINE
  8
1
  6
CONTINUOUS
  62
7
  10
3.520000
  20
3.200000
  11
3.520000
  21
1.280000
  0
LINE
  8
1
  6
CONTINUOUS
  62
7
  10
3.520000
  20
1.280000
  11
6.720000
  21
1.280000
  0
LINE
  8
1
  6
CONTINUOUS
  62
7
  10
6.720000
  20
1.280000
  11
6.720000
  21
3.200000
  0
POLYLINE
  8
1
  6
CONTINUOUS
  10
0.0
  20
0.0
  30
0.0
  70
8
  66
1
  0
VERTEX
 8
0
 10
6.720000
 20
3.200000
 30
0.000000
  0
VERTEX
 8
0
 10
6.677579
 20
3.267443
 30
0.000000
  0
VERTEX
 8
0
 10
6.635570
 20
3.334968
 30
0.000000
  0
VERTEX
 8
0
 10
6.594384
 20
3.402659
 30
0.000000
  0
VERTEX
 8
0
 10
6.554435
 20
3.470596
 30
0.000000
  0
VERTEX
 8
0
 10
6.516133
 20
3.538863
 30
0.000000
  0
VERTEX
 8
0
 10
6.479892
 20
3.607542
 30
0.000000
  0
VERTEX
 8
0
 10
6.446122
 20
3.676715
 30
0.000000
  0
VERTEX
 8
0
 10
6.415236
 20
3.746465
 30
0.000000
  0
VERTEX
 8
0
 10
6.387645
 20
3.816875
 30
0.000000
  0
VERTEX
 8
0
 10
6.363763
 20
3.888025
 30
0.000000
  0
VERTEX
 8
0
 10
6.344000
 20
3.960000
 30
0.000000
  0
VERTEX
 8
0
 10
6.328000
 20
4.040000
 30
0.000000
  0
VERTEX
 8
0
 10
6.317919
 20
4.131184
 30
0.000000
  0
VERTEX
 8
0
 10
6.315471
 20
4.223894
 30
0.000000
  0
VERTEX
 8
0
 10
6.319564
 20
4.317913
 30
0.000000
  0
VERTEX
 8
0
 10
6.329110
 20
4.413022
 30
0.000000
  0
VERTEX
 8
0
 10
6.343016
 20
4.509003
 30
0.000000
  0
VERTEX
 8
0
 10
6.360194
 20
4.605639
 30
0.000000
  0
VERTEX
 8
0
 10
6.379552
 20
4.702710
 30
0.000000
  0
VERTEX
 8
0
 10
6.400000
 20
4.800000
 30
0.000000
  0
SEQEND
  0
LINE
  8
1
  6
CONTINUOUS
  62
7
  10
6.400000
  20
4.800000
  11
5.760000
  21
5.120000
  0
LINE
  8
1
  6
CONTINUOUS
  62
7
  10
5.760000
  20
5.120000
  11
4.480000
  21
5.120000
  0
LINE
  8
1
  6
CONTINUOUS
  62
7
  10
4.480000
  20
5.120000
  11
3.840000
  21
4.800000
  0
POLYLINE
  8
1
  6
CONTINUOUS
  10
0.0
  20
0.0
  30
0.0
  70
8
  66
1
  0
VERTEX
 8
0
 10
3.840000
 20
4.800000
 30
0.000000
  0
VERTEX
 8
0
 10
3.865493
 20
4.700273
 30
0.000000
  0
VERTEX
 8
0
 10
3.889372
 20
4.600869
 30
0.000000
  0
VERTEX
 8
0
 10
3.910019
 20
4.502110
 30
0.000000
  0
VERTEX
 8
0
 10
3.925821
 20
4.404321
 30
0.000000
  0
VERTEX
 8
0
 10
3.935162
 20
4.307825
 30
0.000000
  0
VERTEX
 8
0
 10
3.936427
 20
4.212943
 30
0.000000
  0
VERTEX
 8
0
 10
3.928000
 20
4.120000
 30
0.000000
  0
VERTEX
 8
0
 10
3.912000
 20
4.040000
 30
0.000000
  0
VERTEX
 8
0
 10
3.892360
 20
3.967395
 30
0.000000
  0
VERTEX
 8
0
 10
3.869321
 20
3.895469
 30
0.000000
  0
VERTEX
 8
0
 10
3.843194
 20
3.824161
 30
0.000000
  0
VERTEX
 8
0
 10
3.814286
 20
3.753410
 30
0.000000
  0
VERTEX
 8
0
 10
3.782906
 20
3.683152
 30
0.000000
  0
VERTEX
 8
0
 10
3.749364
 20
3.613327
 30
0.000000
  0
VERTEX
 8
0
 10
3.713969
 20
3.543873
 30
0.000000
  0
VERTEX
 8
0
 10
3.677029
 20
3.474728
 30
0.000000
  0
VERTEX
 8
0
 10
3.638853
 20
3.405829
 30
0.000000
  0
VERTEX
 8
0
 10
3.599750
 20
3.337117
 30
0.000000
  0
VERTEX
 8
0
 10
3.560029
 20
3.268527
 30
0.000000
  0
VERTEX
 8
0
 10
3.520000
 20
3.200000
 30
0.000000
  0
SEQEND
  0
LINE
  8
2
  6
CONTINUOUS
  62
7
  10
-1.600000
  20
3.200000
  11
-1.600000
  21
1.280000
  0
LINE
  8
2
  6
CONTINUOUS
  62
7
  10
-1.600000
  20
1.280000
  11
1.600000
  21
1.280000
  0
LINE
  8
2
  6
CONTINUOUS
  62
7
  10
1.600000
  20
1.280000
  11
1.600000
  21
3.200000
  0
POLYLINE
  8
2
  6
CONTINUOUS
  10
0.0
  20
0.0
  30
0.0
  70
8
  66
1
  0
VERTEX
 8
0
 10
1.600000
 20
3.200000
 30
0.000000
  0
VERTEX
 8
0
 10
1.557579
 20
3.267443
 30
0.000000
  0
VERTEX
 8
0
 10
1.515570
 20
3.334968
 30
0.000000
  0
VERTEX
 8
0
 10
1.474384
 20
3.402659
 30
0.000000
  0
VERTEX
 8
0
 10
1.434435
 20
3.470596
 30
0.000000
  0
VERTEX
 8
0
 10
1.396133
 20
3.538863
 30
0.000000
  0
VERTEX
 8
0
 10
1.359892
 20
3.607542
 30
0.000000
  0
VERTEX
 8
0
 10
1.326122
 20
3.676715
 30
0.000000
  0
VERTEX
 8
0
 10
1.295236
 20
3.746465
 30
0.000000
  0
VERTEX
 8
0
 10
1.267645
 20
3.816875
 30
0.000000
  0
VERTEX
 8
0
 10
1.243763
 20
3.888025
 30
0.000000
  0
VERTEX
 8
0
 10
1.224000
 20
3.960000
 30
0.000000
  0
VERTEX
 8
0
 10
1.208000
 20
4.040000
 30
0.000000
  0
VERTEX
 8
0
 10
1.197919
 20
4.131184
 30
0.000000
  0
VERTEX
 8
0
 10
1.195471
 20
4.223894
 30
0.000000
  0
VERTEX
 8
0
 10
1.199564
 20
4.317913
 30
0.000000
  0
VERTEX
 8
0
 10
1.209110
 20
4.413022
 30
0.000000
  0
VERTEX
 8
0
 10
1.223016
 20
4.509003
 30
0.000000
  0
VERTEX
 8
0
 10
1.240194
 20
4.605639
 30
0.000000
  0
VERTEX
 8
0
 10
1.259552
 20
4.702710
 30
0.000000
  0
VERTEX
 8
0
 10
1.280000
 20
4.800000
 30
0.000000
  0
SEQEND
  0
LINE
  8
2
  6
CONTINUOUS
  62
7
  10
1.280000
  20
4.800000
  11
0.640000
  21
5.120000
  0
LINE
  8
2
  6
CONTINUOUS
  62
7
  10
0.640000
  20
5.120000
  11
0.000000
  21
3.840000
  0
LINE
  8
2
  6
CONTINUOUS
  62
7
  10
0.000000
  20
3.840000
  11
-0.640000
  21
5.120000
  0
LINE
  8
2
  6
CONTINUOUS
  62
7
  10
-0.640000
  20
5.120000
  11
-1.280000
  21
4.800000
  0
POLYLINE
  8
2
  6
CONTINUOUS
  10
0.0
  20
0.0
  30
0.0
  70
8
  66
1
  0
VERTEX
 8
0
 10
-1.280000
 20
4.800000
 30
0.000000
  0
VERTEX
 8
0
 10
-1.254507
 20
4.700273
 30
0.000000
  0
VERTEX
 8
0
 10
-1.230628
 20
4.600869
 30
0.000000
  0
VERTEX
 8
0
 10
-1.209981
 20
4.502110
 30
0.000000
  0
VERTEX
 8
0
 10
-1.194179
 20
4.404321
 30
0.000000
  0
VERTEX
 8
0
 10
-1.184838
 20
4.307825
 30
0.000000
  0
VERTEX
 8
0
 10
-1.183573
 20
4.212943
 30
0.000000
  0
VERTEX
 8
0
 10
-1.192000
 20
4.120000
 30
0.000000
  0
VERTEX
 8
0
 10
-1.208000
 20
4.040000
 30
0.000000
  0
VERTEX
 8
0
 10
-1.227640
 20
3.967395
 30
0.000000
  0
VERTEX
 8
0
 10
-1.250679
 20
3.895469
 30
0.000000
  0
VERTEX
 8
0
 10
-1.276806
 20
3.824161
 30
0.000000
  0
VERTEX
 8
0
 10
-1.305714
 20
3.753410
 30
0.000000
  0
VERTEX
 8
0
 10
-1.337094
 20
3.683152
 30
0.000000
  0
VERTEX
 8
0
 10
-1.370636
 20
3.613327
 30
0.000000
  0
VERTEX
 8
0
 10
-1.406031
 20
3.543873
 30
0.000000
  0
VERTEX
 8
0
 10
-1.442971
 20
3.474728
 30
0.000000
  0
VERTEX
 8
0
 10
-1.481147
 20
3.405829
 30
0.000000
  0
VERTEX
 8
0
 10
-1.520250
 20
3.337117
 30
0.000000
  0
VERTEX
 8
0
 10
-1.559971
 20
3.268527
 30
0.000000
  0
VERTEX
 8
0
 10
-1.600000
 20
3.200000
 30
0.000000
  0
SEQEND
  0
POLYLINE
  8
3
  6
CONTINUOUS
  10
0.0
  20
0.0
  30
0.0
  70
8
  66
1
  0
VERTEX
 8
0
 10
-0.640000
 20
-3.200000
 30
0.000000
  0
VERTEX
 8
0
 10
-0.613750
 20
-3.267456
 30
0.000000
  0
VERTEX
 8
0
 10
-0.586925
 20
-3.334479
 30
0.000000
  0
VERTEX
 8
0
 10
-0.558948
 20
-3.400639
 30
0.000000
  0
VERTEX
 8
0
 10
-0.529242
 20
-3.465503
 30
0.000000
  0
VERTEX
 8
0
 10
-0.497233
 20
-3.528639
 30
0.000000
  0
VERTEX
 8
0
 10
-0.462345
 20
-3.589616
 30
0.000000
  0
VERTEX
 8
0
 10
-0.424000
 20
-3.648000
 30
0.000000
  0
VERTEX
 8
0
 10
-0.376000
 20
-3.712000
 30
0.000000
  0
VERTEX
 8
0
 10
-0.322645
 20
-3.779484
 30
0.000000
  0
VERTEX
 8
0
 10
-0.268078
 20
-3.846059
 30
0.000000
  0
VERTEX
 8
0
 10
-0.212410
 20
-3.911807
 30
0.000000
  0
VERTEX
 8
0
 10
-0.155750
 20
-3.976812
 30
0.000000
  0
VERTEX
 8
0
 10
-0.098209
 20
-4.041157
 30
0.000000
  0
VERTEX
 8
0
 10
-0.039897
 20
-4.104923
 30
0.000000
  0
VERTEX
 8
0
 10
0.019076
 20
-4.168193
 30
0.000000
  0
VERTEX
 8
0
 10
0.078600
 20
-4.231050
 30
0.000000
  0
VERTEX
 8
0
 10
0.138565
 20
-4.293577
 30
0.000000
  0
VERTEX
 8
0
 10
0.198859
 20
-4.355855
 30
0.000000
  0
VERTEX
 8
0
 10
0.259375
 20
-4.417969
 30
0.000000
  0
VERTEX
 8
0
 10
0.320000
 20
-4.480000
 30
0.000000
  0
SEQEND
  0
LINE
  8
3
  6
CONTINUOUS
  62
7
  10
0.320000
  20
-4.480000
  11
0.640000
  21
-4.480000
  0
LINE
  8
3
  6
CONTINUOUS
  62
7
  10
0.640000
  20
-4.480000
  11
0.640000
  21
-1.920000
  0
LINE
  8
3
  6
CONTINUOUS
  62
7
  10
0.640000
  20
-1.920000
  11
0.320000
  21
-1.920000
  0
POLYLINE
  8
3
  6
CONTINUOUS
  10
0.0
  20
0.0
  30
0.0
  70
8
  66
1
  0
VERTEX
 8
0
 10
0.320000
 20
-1.920000
 30
0.000000
  0
VERTEX
 8
0
 10
0.258153
 20
-1.981797
 30
0.000000
  0
VERTEX
 8
0
 10
0.196453
 20
-2.043703
 30
0.000000
  0
VERTEX
 8
0
 10
0.135047
 20
-2.105830
 30
0.000000
  0
VERTEX
 8
0
 10
0.074081
 20
-2.168288
 30
0.000000
  0
VERTEX
 8
0
 10
0.013703
 20
-2.231186
 30
0.000000
  0
VERTEX
 8
0
 10
-0.045941
 20
-2.294635
 30
0.000000
  0
VERTEX
 8
0
 10
-0.104703
 20
-2.358746
 30
0.000000
  0
VERTEX
 8
0
 10
-0.162437
 20
-2.423627
 30
0.000000
  0
VERTEX
 8
0
 10
-0.218996
 20
-2.489390
 30
0.000000
  0
VERTEX
 8
0
 10
-0.274232
 20
-2.556144
 30
0.000000
  0
VERTEX
 8
0
 10
-0.328000
 20
-2.624000
 30
0.000000
  0
VERTEX
 8
0
 10
-0.376000
 20
-2.688000
 30
0.000000
  0
VERTEX
 8
0
 10
-0.415804
 20
-2.746897
 30
0.000000
  0
VERTEX
 8
0
 10
-0.452886
 20
-2.807836
 30
0.000000
  0
VERTEX
 8
0
 10
-0.487635
 20
-2.870524
 30
0.000000
  0
VERTEX
 8
0
 10
-0.520441
 20
-2.934669
 30
0.000000
  0
VERTEX
 8
0
 10
-0.551691
 20
-2.999981
 30
0.000000
  0
VERTEX
 8
0
 10
-0.581776
 20
-3.066168
 30
0.000000
  0
VERTEX
 8
0
 10
-0.611082
 20
-3.132938
 30
0.000000
  0
VERTEX
 8
0
 10
-0.640000
 20
-3.200000
 30
0.000000
  0
SEQEND
  0
LINE
  8
4
  6
CONTINUOUS
  62
7
  10
3.840000
  20
-1.920000
  11
3.840000
  21
-4.480000
  0
LINE
  8
4
  6
CONTINUOUS
  62
7
  10
3.840000
  20
-4.480000
  11
4.160000
  21
-4.480000
  0
POLYLINE
  8
4
  6
CONTINUOUS
  10
0.0
  20
0.0
  30
0.0
  70
8
  66
1
  0
VERTEX
 8
0
 10
4.160000
 20
-4.480000
 30
0.000000
  0
VERTEX
 8
0
 10
4.221847
 20
-4.418203
 30
0.000000
  0
VERTEX
 8
0
 10
4.283547
 20
-4.356297
 30
0.000000
  0
VERTEX
 8
0
 10
4.344953
 20
-4.294170
 30
0.000000
  0
VERTEX
 8
0
 10
4.405919
 20
-4.231712
 30
0.000000
  0
VERTEX
 8
0
 10
4.466297
 20
-4.168814
 30
0.000000
  0
VERTEX
 8
0
 10
4.525941
 20
-4.105365
 30
0.000000
  0
VERTEX
 8
0
 10
4.584703
 20
-4.041255
 30
0.000000
  0
VERTEX
 8
0
 10
4.642437
 20
-3.976373
 30
0.000000
  0
VERTEX
 8
0
 10
4.698996
 20
-3.910610
 30
0.000000
  0
VERTEX
 8
0
 10
4.754232
 20
-3.843856
 30
0.000000
  0
VERTEX
 8
0
 10
4.808000
 20
-3.776000
 30
0.000000
  0
VERTEX
 8
0
 10
4.856000
 20
-3.712000
 30
0.000000
  0
VERTEX
 8
0
 10
4.895804
 20
-3.653103
 30
0.000000
  0
VERTEX
 8
0
 10
4.932886
 20
-3.592164
 30
0.000000
  0
VERTEX
 8
0
 10
4.967635
 20
-3.529476
 30
0.000000
  0
VERTEX
 8
0
 10
5.000441
 20
-3.465331
 30
0.000000
  0
VERTEX
 8
0
 10
5.031691
 20
-3.400019
 30
0.000000
  0
VERTEX
 8
0
 10
5.061776
 20
-3.333832
 30
0.000000
  0
VERTEX
 8
0
 10
5.091082
 20
-3.267062
 30
0.000000
  0
VERTEX
 8
0
 10
5.120000
 20
-3.200000
 30
0.000000
  0
SEQEND
  0
POLYLINE
  8
4
  6
CONTINUOUS
  10
0.0
  20
0.0
  30
0.0
  70
8
  66
1
  0
VERTEX
 8
0
 10
5.120000
 20
-3.200000
 30
0.000000
  0
VERTEX
 8
0
 10
5.093750
 20
-3.132544
 30
0.000000
  0
VERTEX
 8
0
 10
5.066925
 20
-3.065521
 30
0.000000
  0
VERTEX
 8
0
 10
5.038948
 20
-2.999361
 30
0.000000
  0
VERTEX
 8
0
 10
5.009242
 20
-2.934497
 30
0.000000
  0
VERTEX
 8
0
 10
4.977233
 20
-2.871361
 30
0.000000
  0
VERTEX
 8
0
 10
4.942345
 20
-2.810384
 30
0.000000
  0
VERTEX
 8
0
 10
4.904000
 20
-2.752000
 30
0.000000
  0
VERTEX
 8
0
 10
4.856000
 20
-2.688000
 30
0.000000
  0
VERTEX
 8
0
 10
4.802645
 20
-2.620516
 30
0.000000
  0
VERTEX
 8
0
 10
4.748078
 20
-2.553941
 30
0.000000
  0
VERTEX
 8
0
 10
4.692410
 20
-2.488193
 30
0.000000
  0
VERTEX
 8
0
 10
4.635750
 20
-2.423188
 30
0.000000
  0
VERTEX
 8
0
 10
4.578209
 20
-2.358843
 30
0.000000
  0
VERTEX
 8
0
 10
4.519897
 20
-2.295077
 30
0.000000
  0
VERTEX
 8
0
 10
4.460924
 20
-2.231807
 30
0.000000
  0
VERTEX
 8
0
 10
4.401400
 20
-2.168950
 30
0.000000
  0
VERTEX
 8
0
 10
4.341435
 20
-2.106423
 30
0.000000
  0
VERTEX
 8
0
 10
4.281141
 20
-2.044145
 30
0.000000
  0
VERTEX
 8
0
 10
4.220625
 20
-1.982031
 30
0.000000
  0
VERTEX
 8
0
 10
4.160000
 20
-1.920000
 30
0.000000
  0
SEQEND
  0
LINE
  8
4
  6
CONTINUOUS
  62
7
  10
4.160000
  20
-1.920000
  11
3.840000
  21
-1.920000
  0
ENDSEC
  0
EOF
