  0
SECTION
  2
HEADER
  9
$ACADVER
  1
AC1009
  9
$EXTMIN
  10
-1.920000
  20
-1.280000
  9
$EXTMAX
  10
7.040000
  20
5.760000
  0
ENDSEC
  0
SECTION
  2
TABLES
  0
ENDSEC
  0
SECTION
  2
BLOCKS
  0
ENDSEC
  0
SECTION
  2
ENTITIES
  0
LINE
  8
1
  6
CONTINUOUS
  62
7
  10
3.520000
  20
3.840000
  11
3.520000
  21
3.200000
  0
LINE
  8
1
  6
CONTINUOUS
  62
7
  10
3.520000
  20
3.200000
  11
6.720000
  21
3.200000
  0
LINE
  8
1
  6
CONTINUOUS
  62
7
  10
6.720000
  20
3.200000
  11
6.720000
  21
3.840000
  0
POLYLINE
  8
1
  6
CONTINUOUS
  10
0.0
  20
0.0
  30
0.0
  70
8
  66
1
  0
VERTEX
 8
0
 10
6.720000
 20
3.840000
 30
0.000000
  0
VERTEX
 8
0
 10
6.679971
 20
3.908527
 30
0.000000
  0
VERTEX
 8
0
 10
6.640250
 20
3.977117
 30
0.000000
  0
VERTEX
 8
0
 10
6.601147
 20
4.045829
 30
0.000000
  0
VERTEX
 8
0
 10
6.562971
 20
4.114728
 30
0.000000
  0
VERTEX
 8
0
 10
6.526031
 20
4.183873
 30
0.000000
  0
VERTEX
 8
0
 10
6.490636
 20
4.253327
 30
0.000000
  0
VERTEX
 8
0
 10
6.457094
 20
4.323152
 30
0.000000
  0
VERTEX
 8
0
 10
6.425714
 20
4.393410
 30
0.000000
  0
VERTEX
 8
0
 10
6.396806
 20
4.464161
 30
0.000000
  0
VERTEX
 8
0
 10
6.370679
 20
4.535469
 30
0.000000
  0
VERTEX
 8
0
 10
6.347640
 20
4.607395
 30
0.000000
  0
VERTEX
 8
0
 10
6.328000
 20
4.680000
 30
0.000000
  0
VERTEX
 8
0
 10
6.312000
 20
4.760000
 30
0.000000
  0
VERTEX
 8
0
 10
6.303573
 20
4.852943
 30
0.000000
  0
VERTEX
 8
0
 10
6.304838
 20
4.947825
 30
0.000000
  0
VERTEX
 8
0
 10
6.314179
 20
5.044322
 30
0.000000
  0
VERTEX
 8
0
 10
6.329981
 20
5.142111
 30
0.000000
  0
VERTEX
 8
0
 10
6.350628
 20
5.240869
 30
0.000000
  0
VERTEX
 8
0
 10
6.374507
 20
5.340273
 30
0.000000
  0
VERTEX
 8
0
 10
6.400000
 20
5.440000
 30
0.000000
  0
SEQEND
  0
LINE
  8
1
  6
CONTINUOUS
  62
7
  10
6.400000
  20
5.440000
  11
5.760000
  21
5.760000
  0
LINE
  8
1
  6
CONTINUOUS
  62
7
  10
5.760000
  20
5.760000
  11
4.480000
  21
5.760000
  0
LINE
  8
1
  6
CONTINUOUS
  62
7
  10
4.480000
  20
5.760000
  11
3.840000
  21
5.440000
  0
POLYLINE
  8
1
  6
CONTINUOUS
  10
0.0
  20
0.0
  30
0.0
  70
8
  66
1
  0
VERTEX
 8
0
 10
3.840000
 20
5.440000
 30
0.000000
  0
VERTEX
 8
0
 10
3.865493
 20
5.340273
 30
0.000000
  0
VERTEX
 8
0
 10
3.889372
 20
5.240869
 30
0.000000
  0
VERTEX
 8
0
 10
3.910019
 20
5.142111
 30
0.000000
  0
VERTEX
 8
0
 10
3.925821
 20
5.044322
 30
0.000000
  0
VERTEX
 8
0
 10
3.935162
 20
4.947825
 30
0.000000
  0
VERTEX
 8
0
 10
3.936427
 20
4.852943
 30
0.000000
  0
VERTEX
 8
0
 10
3.928000
 20
4.760000
 30
0.000000
  0
VERTEX
 8
0
 10
3.912000
 20
4.680000
 30
0.000000
  0
VERTEX
 8
0
 10
3.892360
 20
4.607395
 30
0.000000
  0
VERTEX
 8
0
 10
3.869321
 20
4.535469
 30
0.000000
  0
VERTEX
 8
0
 10
3.843194
 20
4.464161
 30
0.000000
  0
VERTEX
 8
0
 10
3.814286
 20
4.393410
 30
0.000000
  0
VERTEX
 8
0
 10
3.782906
 20
4.323152
 30
0.000000
  0
VERTEX
 8
0
 10
3.749364
 20
4.253327
 30
0.000000
  0
VERTEX
 8
0
 10
3.713969
 20
4.183873
 30
0.000000
  0
VERTEX
 8
0
 10
3.677029
 20
4.114728
 30
0.000000
  0
VERTEX
 8
0
 10
3.638853
 20
4.045829
 30
0.000000
  0
VERTEX
 8
0
 10
3.599750
 20
3.977117
 30
0.000000
  0
VERTEX
 8
0
 10
3.560029
 20
3.908527
 30
0.000000
  0
VERTEX
 8
0
 10
3.520000
 20
3.840000
 30
0.000000
  0
SEQEND
  0
LINE
  8
2
  6
CONTINUOUS
  62
7
  10
-1.600000
  20
3.840000
  11
-1.600000
  21
3.200000
  0
LINE
  8
2
  6
CONTINUOUS
  62
7
  10
-1.600000
  20
3.200000
  11
1.600000
  21
3.200000
  0
LINE
  8
2
  6
CONTINUOUS
  62
7
  10
1.600000
  20
3.200000
  11
1.600000
  21
3.840000
  0
POLYLINE
  8
2
  6
CONTINUOUS
  10
0.0
  20
0.0
  30
0.0
  70
8
  66
1
  0
VERTEX
 8
0
 10
1.600000
 20
3.840000
 30
0.000000
  0
VERTEX
 8
0
 10
1.557579
 20
3.907443
 30
0.000000
  0
VERTEX
 8
0
 10
1.515570
 20
3.974968
 30
0.000000
  0
VERTEX
 8
0
 10
1.474384
 20
4.042659
 30
0.000000
  0
VERTEX
 8
0
 10
1.434435
 20
4.110596
 30
0.000000
  0
VERTEX
 8
0
 10
1.396133
 20
4.178863
 30
0.000000
  0
VERTEX
 8
0
 10
1.359892
 20
4.247542
 30
0.000000
  0
VERTEX
 8
0
 10
1.326122
 20
4.316715
 30
0.000000
  0
VERTEX
 8
0
 10
1.295236
 20
4.386465
 30
0.000000
  0
VERTEX
 8
0
 10
1.267645
 20
4.456875
 30
0.000000
  0
VERTEX
 8
0
 10
1.243763
 20
4.528025
 30
0.000000
  0
VERTEX
 8
0
 10
1.224000
 20
4.600000
 30
0.000000
  0
VERTEX
 8
0
 10
1.208000
 20
4.680000
 30
0.000000
  0
VERTEX
 8
0
 10
1.197919
 20
4.771184
 30
0.000000
  0
VERTEX
 8
0
 10
1.195471
 20
4.863894
 30
0.000000
  0
VERTEX
 8
0
 10
1.199564
 20
4.957913
 30
0.000000
  0
VERTEX
 8
0
 10
1.209110
 20
5.053022
 30
0.000000
  0
VERTEX
 8
0
 10
1.223016
 20
5.149003
 30
0.000000
  0
VERTEX
 8
0
 10
1.240194
 20
5.245639
 30
0.000000
  0
VERTEX
 8
0
 10
1.259552
 20
5.342710
 30
0.000000
  0
VERTEX
 8
0
 10
1.280000
 20
5.440000
 30
0.000000
  0
SEQEND
  0
LINE
  8
2
  6
CONTINUOUS
  62
7
  10
1.280000
  20
5.440000
  11
0.640000
  21
5.760000
  0
LINE
  8
2
  6
CONTINUOUS
  62
7
  10
0.640000
  20
5.760000
  11
0.000000
  21
3.840000
  0
LINE
  8
2
  6
CONTINUOUS
  62
7
  10
0.000000
  20
3.840000
  11
-0.640000
  21
5.760000
  0
LINE
  8
2
  6
CONTINUOUS
  62
7
  10
-0.640000
  20
5.760000
  11
-1.280000
  21
5.440000
  0
POLYLINE
  8
2
  6
CONTINUOUS
  10
0.0
  20
0.0
  30
0.0
  70
8
  66
1
  0
VERTEX
 8
0
 10
-1.280000
 20
5.440000
 30
0.000000
  0
VERTEX
 8
0
 10
-1.254507
 20
5.340273
 30
0.000000
  0
VERTEX
 8
0
 10
-1.230628
 20
5.240869
 30
0.000000
  0
VERTEX
 8
0
 10
-1.209981
 20
5.142111
 30
0.000000
  0
VERTEX
 8
0
 10
-1.194179
 20
5.044322
 30
0.000000
  0
VERTEX
 8
0
 10
-1.184838
 20
4.947825
 30
0.000000
  0
VERTEX
 8
0
 10
-1.183573
 20
4.852943
 30
0.000000
  0
VERTEX
 8
0
 10
-1.192000
 20
4.760000
 30
0.000000
  0
VERTEX
 8
0
 10
-1.208000
 20
4.680000
 30
0.000000
  0
VERTEX
 8
0
 10
-1.227640
 20
4.607395
 30
0.000000
  0
VERTEX
 8
0
 10
-1.250679
 20
4.535469
 30
0.000000
  0
VERTEX
 8
0
 10
-1.276806
 20
4.464161
 30
0.000000
  0
VERTEX
 8
0
 10
-1.305714
 20
4.393410
 30
0.000000
  0
VERTEX
 8
0
 10
-1.337094
 20
4.323152
 30
0.000000
  0
VERTEX
 8
0
 10
-1.370636
 20
4.253327
 30
0.000000
  0
VERTEX
 8
0
 10
-1.406031
 20
4.183873
 30
0.000000
  0
VERTEX
 8
0
 10
-1.442971
 20
4.114728
 30
0.000000
  0
VERTEX
 8
0
 10
-1.481147
 20
4.045829
 30
0.000000
  0
VERTEX
 8
0
 10
-1.520250
 20
3.977117
 30
0.000000
  0
VERTEX
 8
0
 10
-1.559971
 20
3.908527
 30
0.000000
  0
VERTEX
 8
0
 10
-1.600000
 20
3.840000
 30
0.000000
  0
SEQEND
  0
LINE
  8
3
  6
CONTINUOUS
  62
7
  10
3.968000
  20
0.000000
  11
3.200000
  21
-1.280000
  0
LINE
  8
3
  6
CONTINUOUS
  62
7
  10
3.200000
  20
-1.280000
  11
7.040000
  21
-1.280000
  0
LINE
  8
3
  6
CONTINUOUS
  62
7
  10
7.040000
  20
-1.280000
  11
6.272000
  21
0.000000
  0
LINE
  8
3
  6
CONTINUOUS
  62
7
  10
6.272000
  20
0.000000
  11
3.968000
  21
0.000000
  0
LINE
  8
4
  6
CONTINUOUS
  62
7
  10
-1.152000
  20
0.000000
  11
-1.920000
  21
-1.280000
  0
LINE
  8
4
  6
CONTINUOUS
  62
7
  10
-1.920000
  20
-1.280000
  11
1.920000
  21
-1.280000
  0
LINE
  8
4
  6
CONTINUOUS
  62
7
  10
1.920000
  20
-1.280000
  11
1.152000
  21
0.000000
  0
LINE
  8
4
  6
CONTINUOUS
  62
7
  10
1.152000
  20
0.000000
  11
-1.152000
  21
0.000000
  0
ENDSEC
  0
EOF
